<svg xmlns="http://www.w3.org/2000/svg" aria-hidden="true" style="position:absolute;width:0;height:0;overflow:hidden">
<defs>
<symbol id="icon-plus" viewBox="0 0 32 32">
<path stroke-linecap="round" stroke-linejoin="round" stroke-width="3" d="M5 16h22M16 5v22"/>
</symbol>
<symbol id="icon-camera" viewBox="0 0 32 32">
<path stroke-linecap="round" stroke-linejoin="round" stroke-width=".5" d="M28.191 11.429V6.848A3.05 3.05 0 0 0 25.153 3.8l-4.581-.014m7.619 16.785v4.571a3.047 3.047 0 0 1-3.048 3.048h-4.571M11.429 3.787l-4.581.015A3.045 3.045 0 0 0 3.81 6.85v4.579m7.619 16.761H6.858a3.047 3.047 0 0 1-3.048-3.048v-4.571"/>
<path d="M16 18.75c.625 0 1.156-.219 1.594-.656s.656-.969.656-1.594-.219-1.156-.656-1.594c-.438-.437-.969-.656-1.594-.656s-1.156.219-1.594.656c-.437.438-.656.969-.656 1.594s.219 1.156.656 1.594c.438.437.969.656 1.594.656zm-4 1.75c-.275 0-.51-.098-.706-.294S11 19.775 11 19.5v-6c0-.275.098-.51.294-.706s.431-.294.706-.294h1.575l.925-1h3l.925 1H20c.275 0 .511.098.706.294s.294.431.294.706v6c0 .275-.098.511-.294.706s-.431.294-.706.294h-8z"/>
</symbol>
<symbol id="icon-close" viewBox="0 0 32 32">
<path stroke-linecap="round" stroke-linejoin="round" stroke-width="2.667" d="M25 7 7 25M25 25 7 7"/>
</symbol>
<symbol id="icon-down" viewBox="0 0 32 32">
<path stroke-linecap="round" stroke-linejoin="round" stroke-width="5.333" d="M29.333 9.333 16 22.666 2.667 9.333"/>
</symbol>
<symbol id="icon-edit" viewBox="0 0 32 32">
<path stroke-linecap="round" stroke-linejoin="round" stroke-width="2.189" d="M3.791 24.546c.077-.696.116-1.045.221-1.37.093-.289.226-.564.393-.817.188-.285.436-.533.932-1.029L22.667 4A3.77 3.77 0 1 1 28 9.333l-17.33 17.33c-.495.495-.743.743-1.029.932a3.382 3.382 0 0 1-.817.393c-.325.105-.674.144-1.37.221l-4.121.458.458-4.121z"/>
</symbol>
<symbol id="icon-email" viewBox="0 0 32 32">
<path stroke-linecap="round" stroke-linejoin="round" stroke-width="2.909" d="m1.455 8.727 11.876 8.313c.962.673 1.443 1.01 1.966 1.14.462.115.945.115 1.407 0 .523-.13 1.004-.467 1.966-1.14l11.876-8.313M8.436 27.636h15.127c2.444 0 3.666 0 4.599-.476a4.36 4.36 0 0 0 1.907-1.907c.476-.934.476-2.155.476-4.599v-9.309c0-2.444 0-3.666-.476-4.599a4.36 4.36 0 0 0-1.907-1.907c-.934-.476-2.155-.476-4.599-.476H8.436c-2.444 0-3.666 0-4.599.476A4.36 4.36 0 0 0 1.93 6.746c-.476.933-.476 2.155-.476 4.599v9.309c0 2.444 0 3.666.476 4.599a4.36 4.36 0 0 0 1.907 1.907c.933.476 2.155.476 4.599.476z"/>
</symbol>
<symbol id="icon-error" viewBox="0 0 32 32">
<path d="M0 16C0 7.162 7.162 0 16 0s16 7.162 16 16c0 8.837-7.163 16-16 16S0 24.837 0 16zm10.938-2.994 2.944 2.938-2.944 2.994c-.581.588-.581 1.538 0 2.069.588.637 1.537.637 2.069 0l2.938-2.888 2.994 2.888c.588.637 1.538.637 2.069 0 .637-.531.637-1.481 0-2.069l-2.888-2.994 2.888-2.938c.637-.531.637-1.481 0-2.069-.531-.581-1.481-.581-2.069 0l-2.994 2.944-2.938-2.944c-.531-.581-1.481-.581-2.069 0-.581.588-.581 1.537 0 2.069z"/>
</symbol>
<symbol id="icon-facebook" viewBox="0 0 32 32">
<path d="M31.238 16.092C31.238 7.626 24.415.762 16 .762S.762 7.626.762 16.092c0 7.651 5.571 13.994 12.857 15.145V20.525h-3.87v-4.433h3.87v-3.377c0-3.841 2.276-5.965 5.756-5.965 1.667 0 3.412.3 3.412.3v3.773h-1.922c-1.892 0-2.484 1.181-2.484 2.395v2.874h4.226l-.675 4.433h-3.55v10.713c7.286-1.15 12.857-7.493 12.857-15.146z"/>
</symbol>
<symbol id="icon-instagram" viewBox="0 0 32 32">
<path d="M22.349 3.301a6.368 6.368 0 0 1 6.349 6.349v12.698a6.368 6.368 0 0 1-6.349 6.349H9.651a6.37 6.37 0 0 1-6.349-6.349V9.65a6.37 6.37 0 0 1 6.349-6.349h12.698zm0-2.539H9.651c-4.889 0-8.889 4-8.889 8.889v12.698c0 4.889 4 8.889 8.889 8.889h12.698c4.889 0 8.889-4 8.889-8.889V9.651c0-4.889-4-8.889-8.889-8.889z"/>
<path d="M24.254 9.654a1.905 1.905 0 1 1 .003-3.812 1.905 1.905 0 0 1-.004 3.813zM16 10.923a5.079 5.079 0 1 1 .003 10.156 5.079 5.079 0 0 1-.004-10.155zm0-2.54a7.62 7.62 0 0 0-7.473 9.105 7.624 7.624 0 0 0 5.986 5.986 7.616 7.616 0 0 0 7.821-3.24 7.62 7.62 0 0 0-6.335-11.853z"/>
</symbol>
<symbol id="icon-logo-green" viewBox="0 0 32 32">
<path d="M8.727 0h14.545a8.727 8.727 0 0 1 8.727 8.727v14.545a8.727 8.727 0 0 1-8.727 8.727H8.727A8.727 8.727 0 0 1 0 23.272V8.727A8.727 8.727 0 0 1 8.727 0z"/>
<path stroke-linecap="round" stroke-linejoin="round" stroke-width="1.454" d="M7.273 7.347v3.966c0 1.132.494 2.135 1.26 2.784.375.317.622.746.622 1.221v6.62c0 .736.633 1.333 1.412 1.333s1.412-.597 1.412-1.333v-6.62c0-.476.248-.904.622-1.221a3.635 3.635 0 0 0 1.26-2.784M10.567 11.717V7.273M23.273 8.208c0-.491-.422-.889-.941-.889h-.941c-1.559 0-2.823 1.194-2.823 2.667v5.333c0 1.159.788 2.136 1.882 2.503v4.117c0 .736.633 1.333 1.412 1.333s1.412-.597 1.412-1.333V8.207z"/>
</symbol>
<symbol id="icon-logo-light" viewBox="0 0 32 32">
<path d="M8.727 0h14.545a8.727 8.727 0 0 1 8.727 8.727v14.545a8.727 8.727 0 0 1-8.727 8.727H8.727A8.727 8.727 0 0 1 0 23.272V8.727A8.727 8.727 0 0 1 8.727 0z"/>
<path stroke-linecap="round" stroke-linejoin="round" stroke-width="1.454" d="M7.273 7.347v3.966c0 1.132.494 2.135 1.26 2.784.375.317.622.746.622 1.221v6.62c0 .736.633 1.333 1.412 1.333s1.412-.597 1.412-1.333v-6.62c0-.476.248-.904.622-1.221a3.635 3.635 0 0 0 1.26-2.784M10.567 11.717V7.273M23.273 8.207c0-.491-.422-.889-.941-.889h-.941c-1.559 0-2.823 1.194-2.823 2.667v5.333c0 1.159.788 2.136 1.882 2.503v4.117c0 .736.633 1.333 1.412 1.333s1.412-.597 1.412-1.333V8.206z"/>
</symbol>
<symbol id="icon-minus" viewBox="0 0 32 32">
<path stroke-linecap="round" stroke-linejoin="round" stroke-width="3" d="M5 16h22"/>
</symbol>
<symbol id="icon-password" viewBox="0 0 32 32">
<path stroke-linecap="round" stroke-linejoin="round" stroke-width="3.048" d="M23.619 14.476V9.905a7.619 7.619 0 1 0-15.238 0v4.571M9.6 29.714h12.8c2.56 0 3.84 0 4.818-.498a4.576 4.576 0 0 0 1.998-1.998c.498-.978.498-2.258.498-4.818v-.61c0-2.56 0-3.84-.498-4.818a4.576 4.576 0 0 0-1.998-1.998c-.978-.498-2.258-.498-4.818-.498H9.6c-2.56 0-3.84 0-4.818.498a4.576 4.576 0 0 0-1.998 1.998c-.498.978-.498 2.258-.498 4.818v.61c0 2.56 0 3.84.498 4.818a4.576 4.576 0 0 0 1.998 1.998c.978.498 2.258.498 4.818.498z"/>
</symbol>
<symbol id="icon-search" viewBox="0 0 32 32">
<path stroke-linecap="round" stroke-linejoin="round" stroke-width="2.667" d="M14.667 25.333c5.891 0 10.667-4.776 10.667-10.667S20.558 3.999 14.667 3.999 4 8.775 4 14.666s4.776 10.667 10.667 10.667zM28.001 28l-5.8-5.8"/>
</symbol>
<symbol id="icon-success" viewBox="0 0 32 32">
<path d="M0 16C0 7.162 7.162 0 16 0s16 7.162 16 16c0 8.837-7.163 16-16 16S0 24.837 0 16zm23.237-2.762c.681-.681.681-1.794 0-2.475s-1.794-.681-2.475 0l-6.763 6.762-2.763-2.762c-.681-.681-1.794-.681-2.475 0s-.681 1.794 0 2.475l4 4a1.755 1.755 0 0 0 2.475 0l8-8z"/>
</symbol>
<symbol id="icon-trash" viewBox="0 0 32 32">
<path stroke-linecap="round" stroke-linejoin="round" stroke-width="2.909" d="M21.818 7.273V6.109c0-1.629 0-2.444-.317-3.066a2.913 2.913 0 0 0-1.271-1.271c-.622-.317-1.437-.317-3.066-.317h-2.327c-1.629 0-2.444 0-3.066.317A2.913 2.913 0 0 0 10.5 3.043c-.317.622-.317 1.437-.317 3.066v1.164m2.908 8v7.273m5.818-7.273v7.273m-16-15.273h26.182m-2.909 0v16.291c0 2.444 0 3.666-.476 4.599a4.36 4.36 0 0 1-1.907 1.907c-.934.476-2.155.476-4.599.476h-6.4c-2.444 0-3.666 0-4.599-.476a4.36 4.36 0 0 1-1.907-1.907c-.476-.934-.476-2.155-.476-4.599V7.273"/>
</symbol>
<symbol id="icon-twitter" viewBox="0 0 32 32">
<path d="M32 6.233c-1.2.522-2.47.865-3.77 1.02a6.502 6.502 0 0 0 2.889-3.573 13.189 13.189 0 0 1-4.171 1.567A6.623 6.623 0 0 0 22.154 3.2c-3.628 0-6.564 2.893-6.564 6.46-.003.496.054.991.169 1.473A18.723 18.723 0 0 1 2.226 4.38a6.386 6.386 0 0 0-.893 3.247c0 2.24 1.169 4.22 2.933 5.38a6.499 6.499 0 0 1-2.985-.807v.08c0 3.133 2.267 5.74 5.267 6.333a6.733 6.733 0 0 1-1.729.227 6.31 6.31 0 0 1-1.234-.12c.834 2.567 3.261 4.433 6.137 4.487a13.304 13.304 0 0 1-8.155 2.767A13.671 13.671 0 0 1 0 25.881a18.578 18.578 0 0 0 10.049 2.92c12.091 0 18.696-9.847 18.696-18.387 0-.28-.007-.56-.021-.833a13.222 13.222 0 0 0 3.275-3.347z"/>
</symbol>
<symbol id="icon-up" viewBox="0 0 32 32">
<path stroke-linecap="round" stroke-linejoin="round" stroke-width="5.333" d="M2.667 22.667 16 9.334l13.333 13.333"/>
</symbol>
<symbol id="icon-user" viewBox="0 0 32 32">
<path stroke-linecap="round" stroke-linejoin="round" stroke-width="3.048" d="M28.19 29.714c0-2.127 0-3.19-.262-4.055a6.097 6.097 0 0 0-4.064-4.064c-.865-.262-1.928-.262-4.055-.262H12.19c-2.127 0-3.19 0-4.055.262a6.094 6.094 0 0 0-4.063 4.064c-.262.865-.262 1.928-.262 4.055M22.857 9.143a6.857 6.857 0 1 1-13.714 0 6.857 6.857 0 0 1 13.714 0z"/>
</symbol>
<symbol id="icon-warning" viewBox="0 0 32 32">
<path d="M16 0C7.162 0 0 7.162 0 16s7.162 16 16 16c8.837 0 16-7.163 16-16S24.837 0 16 0zm-1.5 9.5c0-.825.675-1.5 1.5-1.5s1.5.672 1.5 1.5v8a1.5 1.5 0 0 1-3 0v-8zM16 25a1.965 1.965 0 1 1 0-3.93A1.965 1.965 0 0 1 16 25z"/>
</symbol>
<symbol id="icon-watch" viewBox="0 0 32 32">
<path stroke-linecap="round" stroke-linejoin="round" stroke-width="2.88" d="M16 29.333c7.364 0 13.333-5.97 13.333-13.333S23.363 2.667 16 2.667C8.636 2.667 2.667 8.637 2.667 16S8.637 29.333 16 29.333z"/>
<path stroke-linecap="round" stroke-linejoin="round" stroke-width="2.88" d="M16 8v8l5.333 2.667"/>
</symbol>
<symbol id="icon-youtube" viewBox="0 0 32 32">
<path d="M31.794 9.299c0-2.812-2.069-5.075-4.626-5.075A227.205 227.205 0 0 0 16.564 4h-1.125c-3.6 0-7.138.063-10.601.225C2.288 4.225.219 6.5.219 9.312A92.957 92.957 0 0 0 0 15.986a96.87 96.87 0 0 0 .213 6.681c0 2.812 2.069 5.094 4.619 5.094 3.638.169 7.37.244 11.164.237a224.3 224.3 0 0 0 11.164-.237c2.557 0 4.626-2.281 4.626-5.094.15-2.231.219-4.456.213-6.687a90.948 90.948 0 0 0-.204-6.681zM12.94 22.118V9.837l9.064 6.137-9.064 6.144z"/>
</symbol>
<symbol id="icon-mobile-menu" viewBox="0 0 45 32">
<path stroke-linecap="round" stroke-linejoin="round" stroke-width="4" d="M3.2 16h38.4M3.2 3.2h38.4M3.2 28.8h25.6"/>
</symbol>
<symbol id="icon-arrow-header" viewBox="0 0 52 32">
<path fill="#8baa36" d="m41.413 14.638-.747 2.15c-.009.025-.011.051-.005.077s.017.049.034.069l1.463 1.655c.133.155.39.065.397-.139l.202-5.978a.218.218 0 0 0-.117-.203.227.227 0 0 0-.236.015l-4.95 3.456a.222.222 0 0 0 .101.403l2.207.294a.15.15 0 0 0 .139-.057l1.409-1.798c.009-.011.021-.019.035-.021s.028-.001.041.006c.013.007.022.017.027.03s.006.027.001.041z" style="fill:var(--color1, #8baa36)"/>
<path fill="none" stroke="#8baa36" stroke-linejoin="round" stroke-width=".835" d="M5.918 10.431c4.133 3.461 14.047 15.084 18.639 7.82 5.74-9.08-9.703-9.547-9.071-1.713s14.857 13.474 24.645.677" style="stroke:var(--color1, #8baa36)"/>
</symbol>
<symbol id="icon-arrow" viewBox="0 0 32 32">
<path fill="none" stroke="#3e4462" stroke-linecap="round" stroke-linejoin="round" stroke-width="2.667" d="M5.333 16h21.333m.001 0-8-8m8 8-8 8" style="stroke:var(--color2, #3e4462)"/>
</symbol>
</defs>
</svg>